<?xml version="1.0" ?><svg enable-background="new 0 0 512 512" id="Layer_1" version="1.1" viewBox="0 0 512 512" xml:space="preserve" xmlns="http://www.w3.org/2000/svg" xmlns:xlink="http://www.w3.org/1999/xlink"><g><g><g><path d="M185.3,184.4c9.7,0,9.7-15,0-15C175.6,169.4,175.6,184.4,185.3,184.4L185.3,184.4z"/></g></g><g><path d="M457.7,457.7c-19.5,19.5-46.6,29.3-74,26.7c-27.4-2.5-52.3-17.2-67.8-39.9l-50-73.2l58.9-37.1l48.6,71    c5.2,7.6,14.5,11.4,23.5,9.5c9-1.8,16.1-8.9,17.9-18c1.8-9-1.9-18.3-9.5-23.5l-68.3-46.7l64.2-40.4l0,0l43.4,29.7    c22.7,15.5,37.4,40.4,39.9,67.8C487,411.1,477.2,438.2,457.7,457.7z" fill="#F7941E"/><g><path d="M452.4,452.4c-34.1,33.6-90.1,32.7-122.7-2.5c-6.4-6.9-11.5-15.2-16.8-23c-8.1-11.8-16.1-23.5-24.2-35.3     c-5.5-8-11-16-16.4-24c-0.9,3.4-1.8,6.8-2.7,10.3c19.6-12.4,39.3-24.7,58.9-37.1c-3.4-0.9-6.8-1.8-10.3-2.7     c16.2,23.6,31.9,47.6,48.5,70.9c9.2,12.9,26,17.7,40.2,10c14.6-7.9,19.7-26.6,12.1-41.1c-3.5-6.8-9.6-10.7-15.7-14.8     c-7.2-4.9-14.4-9.9-21.6-14.8c-13.7-9.4-27.4-18.7-41.1-28.1c0,4.3,0,8.6,0,13c21.4-13.5,42.8-27,64.2-40.4     c-3-0.4-6.1-0.8-9.1-1.2c1.6,1.6,4,2.9,5.9,4.2c4,2.7,8,5.5,12,8.2c8.2,5.6,16.5,11.3,24.7,16.9c25.4,17.4,40.4,45.6,38.7,76.6     C476,418.1,466.9,437.6,452.4,452.4c-6.8,6.9,3.8,17.5,10.6,10.6c28.4-28.9,37.2-72.5,21.3-109.9c-7.6-17.8-20.1-32.7-36-43.7     c-6.5-4.5-13.1-9-19.6-13.4c-5.4-3.7-10.8-7.4-16.2-11.1c-1.8-1.2-3.5-2.4-5.3-3.6c-1.1-0.7-3.5-3.1-0.8-0.4     c-2.3-2.3-6.3-2.9-9.1-1.2c-21.4,13.5-42.8,27-64.2,40.4c-5,3.1-4.7,9.8,0,13c22.4,15.3,45,30.3,67.2,45.9     c7.5,5.3,10.1,15.4,4,22.9c-6.6,8.2-18.8,7.2-24.9-1c-8.3-11.2-15.8-23.1-23.7-34.6c-8.2-12-16.4-23.9-24.6-35.9     c-2.2-3.3-6.6-5-10.3-2.7c-19.6,12.4-39.3,24.7-58.9,37.1c-3.2,2-5,6.8-2.7,10.3c13.5,19.8,27.1,39.5,40.6,59.3     c6.1,8.9,11.8,18.1,19.2,26c16.8,18.1,40.1,29.2,64.6,31.4c29.3,2.7,58.5-8.4,79.3-28.9C469.9,456.2,459.3,445.6,452.4,452.4z"/></g></g><g><path d="M246.5,142.8l-59.4,37.4l-1.8-3.3l-46.5-70c-5.2-7.6-14.5-11.4-23.5-9.5c-9,1.8-16.1,8.9-18,17.9    c-1.8,9.1,1.9,18.3,9.5,23.5l70.1,46.5l1.1,0.6l-64.9,40.8l-45.7-30.5c-30.7-21-45.9-58.3-38.5-94.8c7.4-36.5,35.9-65,72.4-72.4    c36.5-7.4,73.8,7.8,94.8,38.5L246.5,142.8z" fill="#F7941E"/><g><path d="M242.7,136.3c-19.8,12.5-39.6,24.9-59.4,37.4c3.4,0.9,6.8,1.8,10.3,2.7c-6.5-12-15-23.2-22.6-34.6     c-8.5-12.8-16.8-25.9-25.6-38.6c-9.1-13-26.1-17.7-40.3-10.1c-14.8,7.9-19.9,27.3-11.8,41.8c3.8,6.7,9.9,10.5,16,14.5     c7.5,5,15,10,22.5,15c9.4,6.2,18.8,12.5,28.2,18.7c4.7,3.1,9.2,6.6,14.1,9.3c0-4.3,0-8.6,0-13c-21.6,13.6-43.2,27.2-64.9,40.8     c2.5,0,5,0,7.6,0c-15.6-10.5-31.6-20.6-46.9-31.4c-33.6-23.8-44.9-70.9-26.2-107.5c18-35.1,58.6-53.8,96.9-44     c19.7,5,37.4,17.2,48.9,34c3.9,5.7,7.6,11.4,11.4,17.1c13,19.4,25.9,38.8,38.9,58.2c5.3,8,18.3,0.5,13-7.6     c-12.2-18.3-24.5-36.6-36.7-54.9c-4.5-6.8-9-13.6-13.6-20.3c-12.4-18.1-30.2-31.7-50.9-38.8c-42-14.4-89.3,2-114.5,38.2     c-25.8,37.1-22.3,88.4,7.1,122.4c10,11.5,22.8,19.4,35.3,27.8c9.9,6.6,19.8,13.3,29.8,19.9c2.1,1.4,5.4,1.4,7.6,0     c21.6-13.6,43.2-27.2,64.9-40.8c4.6-2.9,5.1-10.2,0-13c-10.8-5.9-20.9-13.8-31.2-20.6c-12.9-8.5-25.9-16.9-38.6-25.6     c-7.5-5.1-10.3-15.1-4.5-22.8c6.5-8.6,19.2-7.5,25.2,0.8c8.5,11.8,16.1,24.3,24.2,36.5c7.9,12,16.8,23.7,23.7,36.3     c1.9,3.5,6.9,4.8,10.3,2.7c19.8-12.5,39.6-24.9,59.4-37.4C258.4,144.1,250.9,131.2,242.7,136.3z"/></g></g><g><path d="M371.7,209.3c-0.9,8-4.6,15.3-10.3,20.8c-1.6,1.5-3.4,2.9-5.3,4.1L200.7,332l-7.2,4.6    c-13.4,8.4-30.9,6.5-42.1-4.7c-7.3-7.3-10.9-17.5-9.7-27.8c0.9-8,4.6-15.3,10.3-20.8c1.6-1.5,3.4-2.9,5.3-4.1l162.6-102.4    c13.4-8.4,30.9-6.5,42.1,4.7C369.3,188.8,372.9,199,371.7,209.3z" fill="#9B8579"/><g><path d="M364.5,207.3c-1.3,9.5-6.1,16.6-14.1,21.7c-4.2,2.6-8.4,5.3-12.6,7.9c-16,10.1-32.1,20.2-48.1,30.3     c-30.1,19-60.2,37.9-90.3,56.9c-3.2,2-6.4,4.1-9.7,6.1c-13.8,8.4-32.6,3.2-38.8-12.3c-4.9-12.1,0-25.6,10.8-32.6     c3.2-2,6.4-4,9.6-6c33.4-21,66.7-42,100.1-63c14.4-9.1,28.8-18.1,43.2-27.2c2.9-1.8,5.8-3.7,8.7-5.5c10.2-6.2,23.2-6,32.3,2.3     c6.8,6.1,9.4,14.6,8.6,23.5c-0.8,9.6,14.2,9.6,15,0c1.7-19.8-11.3-38.8-30.6-43.8c-11.6-3-23.5-0.8-33.5,5.5     c-11.2,7-22.4,14.1-33.6,21.1c-36.9,23.2-73.8,46.5-110.7,69.7c-12.1,7.6-26.2,14.4-32.6,27.9c-8.9,18.5-2.9,40.7,13.9,52.5     c14.2,9.9,32.5,8.9,46.8-0.1c27.1-16.9,54.1-34.1,81.2-51.1c18.7-11.8,37.4-23.6,56.1-35.3c9.6-6,20.6-11.5,29.2-19.1     c7.4-6.4,12.2-15.6,13.5-25.2c0.6-4-1-8-5.2-9.2C370.2,201.1,365,203.3,364.5,207.3z"/></g></g><g><path d="M326.1,157.3c-0.9,8-4.6,15.3-10.3,20.8c-1.6,1.5-3.4,2.9-5.3,4.1l-155.3,97.8l-7.2,4.6    c-13.4,8.4-30.9,6.5-42.1-4.7c-7.3-7.3-10.9-17.5-9.7-27.8c0.9-8,4.6-15.3,10.3-20.8c1.6-1.5,3.4-2.9,5.3-4.1l162.6-102.4    c13.4-8.4,30.9-6.5,42.1,4.7C323.7,136.8,327.3,147.1,326.1,157.3z" fill="#9B8579"/><g><path d="M318.9,155.3c-1.3,9.5-6.1,16.6-14.1,21.7c-4.2,2.6-8.4,5.3-12.6,7.9c-16,10.1-32.1,20.2-48.1,30.3     c-30.1,19-60.2,37.9-90.3,56.9c-3.2,2-6.4,4.1-9.7,6.1c-13.8,8.4-32.6,3.2-38.8-12.3c-4.9-12.1,0-25.6,10.8-32.6     c3.2-2,6.4-4,9.6-6c33.4-21,66.7-42,100.1-63c14.4-9.1,28.8-18.1,43.2-27.2c2.9-1.8,5.8-3.7,8.7-5.5c10.2-6.2,23.2-6,32.3,2.3     c6.8,6.1,9.4,14.6,8.6,23.5c-0.8,9.6,14.2,9.6,15,0c1.7-19.8-11.3-38.8-30.6-43.8c-11.6-3-23.5-0.8-33.5,5.5     c-11.2,7-22.4,14.1-33.6,21.1c-36.9,23.2-73.8,46.5-110.7,69.7c-12.1,7.6-26.2,14.4-32.6,27.9c-8.9,18.5-2.9,40.7,13.9,52.5     c14.2,9.9,32.5,8.9,46.8-0.1c27.1-16.9,54.1-34.1,81.2-51.1c18.7-11.8,37.4-23.6,56.1-35.3c9.6-6,20.6-11.5,29.2-19.1     c7.4-6.4,12.2-15.6,13.5-25.2c0.6-4-1-8-5.2-9.2C324.6,149.1,319.5,151.3,318.9,155.3z"/></g></g><g><path d="M417.3,260.8c-0.9,8-4.6,15.3-10.3,20.8c-1.6,1.5-3.4,2.9-5.3,4.1l-155.3,97.8l-7.2,4.6    c-13.4,8.4-30.9,6.5-42.1-4.7c-7.3-7.3-10.9-17.5-9.7-27.8c0.9-8,4.6-15.3,10.3-20.8c1.6-1.5,3.4-2.9,5.3-4.1l162.6-102.4    c13.4-8.4,30.9-6.5,42.1,4.7C414.9,240.3,418.5,250.5,417.3,260.8z" fill="#9B8579"/><g><path d="M410.1,258.8c-1.3,9.5-6.1,16.6-14.1,21.7c-4.2,2.6-8.4,5.3-12.6,7.9c-16,10.1-32.1,20.2-48.1,30.3     c-30.1,19-60.2,37.9-90.3,56.9c-3.2,2-6.4,4.1-9.7,6.1c-13.8,8.4-32.6,3.2-38.8-12.3c-4.9-12.1,0-25.6,10.8-32.6     c3.2-2,6.4-4,9.6-6c33.4-21,66.7-42,100.1-63c14.4-9.1,28.8-18.1,43.2-27.2c2.9-1.8,5.8-3.7,8.7-5.5c10.2-6.2,23.2-6,32.3,2.3     c6.8,6.1,9.4,14.6,8.6,23.5c-0.8,9.6,14.2,9.6,15,0c1.7-19.8-11.3-38.8-30.6-43.8c-11.6-3-23.5-0.8-33.5,5.5     c-11.2,7-22.4,14.1-33.6,21.1c-36.9,23.2-73.8,46.5-110.7,69.7c-12.1,7.6-26.2,14.4-32.6,27.9c-8.9,18.5-2.9,40.7,13.9,52.5     c14.2,9.9,32.5,8.9,46.8-0.1c27.1-16.9,54.1-34.1,81.2-51.1c18.7-11.8,37.4-23.6,56.1-35.3c9.6-6,20.6-11.5,29.2-19.1     c7.4-6.4,12.2-15.6,13.5-25.2c0.6-4-1-8-5.2-9.2C415.8,252.5,410.6,254.8,410.1,258.8z"/></g></g></g><line fill="none" stroke="#000000" stroke-miterlimit="10" x1="178" x2="187.1" y1="185.9" y2="180.2"/></svg>