<?xml version="1.0" ?><svg id="Layer_1" style="enable-background:new 0 0 64 64;" version="1.1" viewBox="0 0 64 64" xml:space="preserve" xmlns="http://www.w3.org/2000/svg" xmlns:xlink="http://www.w3.org/1999/xlink"><style type="text/css">
	.st0{fill:#1379C2;}
	.st1{fill:#358DCC;}
	.st2{fill-rule:evenodd;clip-rule:evenodd;fill:#3FB754;}
	.st3{fill-rule:evenodd;clip-rule:evenodd;fill:#CCCCCC;}
	.st4{fill:#5D5E61;}
	.st5{fill:#924F34;}
	.st6{fill:#E6E6E6;}
	.st7{fill:#0F8C7E;}
	.st8{fill-rule:evenodd;clip-rule:evenodd;fill:#E6E6E6;}
	.st9{fill-rule:evenodd;clip-rule:evenodd;fill:#E6E6E6;stroke:#000000;stroke-width:0.4799;stroke-miterlimit:2.6131;}
	.st10{fill:#823B1F;}
	.st11{fill:#FFC810;}
	.st12{fill-rule:evenodd;clip-rule:evenodd;fill:#924F34;}
	.st13{fill:#E04538;}
	.st14{fill-rule:evenodd;clip-rule:evenodd;}
	.st15{fill-rule:evenodd;clip-rule:evenodd;fill:#FFC810;}
	.st16{fill-rule:evenodd;clip-rule:evenodd;fill:#E4E7E9;}
	.st17{fill:#3FB754;}
	.st18{fill-rule:evenodd;clip-rule:evenodd;fill:#5D5E61;}
	.st19{fill:#C92B1C;}
	.st20{fill:#666666;}
	.st21{fill:#FFD95E;}
	.st22{fill:#4D4D4D;}
	.st23{fill-rule:evenodd;clip-rule:evenodd;fill:#0F8C7E;}
	.st24{fill:#999999;}
	.st25{fill:#CCCCCC;}
	.st26{fill-rule:evenodd;clip-rule:evenodd;fill:#358DCC;}
	.st27{fill-rule:evenodd;clip-rule:evenodd;fill:#823B1F;}
</style><g><path class="st7" d="M28.9,36.9h6c13.1,0,23.8,10.7,23.8,23.8c0,1.3-1,2.3-2.3,2.3h-49c-1.3,0-2.3-1-2.3-2.3   C5.2,47.7,15.9,36.9,28.9,36.9L28.9,36.9z"/><path d="M28.9,36h6c13.6,0,24.8,11.2,24.8,24.8c0,1.8-1.5,3.3-3.3,3.3h-49c-1.8,0-3.3-1.5-3.3-3.3C4.2,47.1,15.3,36,28.9,36   L28.9,36z M35,37.9h-6c-12.5,0-22.8,10.3-22.8,22.8c0,0.7,0.6,1.3,1.3,1.3h49c0.7,0,1.3-0.6,1.3-1.3C57.8,48.2,47.5,37.9,35,37.9   L35,37.9z"/><path class="st12" d="M39.2,37.4c-0.6-8.6-1.8-13.6-3.1-16.6c-4.3-2.7-8.3,0.1-8.3,0.1c-1.3,3-2.5,8-3,16.4l-0.3,5.5   c0,0.4,0,0.8-0.1,1.2v0c-0.2,2.9-0.4,6,2.1,6h10.8c2.7,0,2.2-3.5,2.1-6.3l0,0c0-0.3,0-0.6,0-0.8h0L39.2,37.4L39.2,37.4L39.2,37.4z"/><path d="M35.4,21.5c-3.1-1.8-5.9-0.4-6.7,0.1c-2.7,6.4-3.2,17.9-3.2,24.8c0,1.5,0.2,2.7,1.2,2.7v0h10.8c1,0,1.2-1.2,1.2-2.7   C38.6,39.4,38.1,28,35.4,21.5L35.4,21.5z M40.6,46.4c0,2.5-0.5,4.6-3.2,4.6H26.6v0c-2.7,0-3.2-2.1-3.2-4.7c0-7.2,0.6-19.1,3.5-25.8   c2-2.5,7.1-2.1,9.7-0.5C39.7,23.6,40.6,41.2,40.6,46.4L40.6,46.4z"/><path class="st2" d="M27.8,20.9c0,0,4-2.8,8.3-0.1c5.5,1,8.2,6,12.2,5.1c2-0.5,2.1-1.8,2.6-3.3c1.8-0.1,5.9,1.9,5.9,1.9   c1.8,0.9,3.7-1.1,2.8-2.9c-5.8-10.8-17-9.8-5.1-14.8c2-0.5,2.1-3.3,0.2-4C41.2-2.6,34.9,5.1,32,11.5c-2.8-6.3-9.2-14-22.8-8.8   c-1.9,0.7-1.8,3.5,0.2,4c12.2,3-0.4,6-5.2,14.9c-1,1.8,0.9,3.8,2.8,2.9c0,0,4.1-2,5.9-1.9c0.5,1.5,0.7,2.9,2.5,3.3   C19.7,27,22.3,22,27.8,20.9L27.8,20.9z M56.9,24.5L56.9,24.5L56.9,24.5z M54.6,6.7L54.6,6.7L54.6,6.7z M9.5,6.7L9.5,6.7L9.5,6.7z    M7.1,24.5L7.1,24.5L7.1,24.5z"/><path d="M42.9,23c1.9,1.3,3.5,2.4,5.3,2c1.4-0.3,1.6-1.6,2-2.7l0.2-0.6l0.6,0c1.9-0.1,5.8,1.7,6.3,1.9h0l0.1,0   c0.8,0.4,1.3-0.3,1.3-0.3c0.4-0.4,0.4-0.9,0.2-1.3c-2.2-4.2-5.4-6.6-7.5-8.2c-1.4-1-2.4-1.8-2.8-2.7c-0.7-1.7,0.6-3.1,5.7-5.2   l0.1,0c0.5-0.1,0.8-0.5,0.9-1.1c0-0.5-0.2-0.9-0.7-1.1c-9.7-3.7-17.3-1.3-21.5,8.3l-0.9,2l-0.9-2c-4.3-9.6-12-12-21.5-8.3   C9.1,3.8,8.9,4.2,8.9,4.7v0c0,0.5,0.4,0.9,0.9,1.1c4.8,1.2,6.3,2.6,5.8,4.5c-0.3,1.4-1.9,2.7-3.7,4.3c-2.2,1.9-4.9,4.3-6.6,7.4   c-0.2,0.5-0.2,1,0.2,1.3c0.4,0.4,0.9,0.5,1.3,0.3l0,0c1.9-0.6,4.2-2.1,6.3-1.9l0.6,0l0.2,0.6c0.4,1.1,0.6,2.4,1.9,2.7v0   c1.9,0.5,3.5-0.7,5.4-1.9C29,17.7,34.7,17.4,42.9,23L42.9,23z M22.2,24.7c-2.3,1.5-4.2,2.9-6.9,2.2h0c-2.1-0.5-2.5-1.8-3-3.2   c-1.8,0.3-3.2,1.2-4.8,1.7v0C6.3,26,4.9,25.7,4,24.7c-0.9-1-1.1-2.4-0.5-3.6c1.8-3.4,4.7-6,7-8c1.6-1.4,2.9-2.6,3.1-3.3   c0.2-0.6-0.9-1.3-4.4-2.1l0,0C7.9,7.3,7,6.2,7,4.9c-0.1-1.4,0.7-2.6,2-3C18.5-1.9,27-0.1,32,9.3c5-9.3,13.4-11.2,23.1-7.5   c1.3,0.5,2,1.7,2,3v0c-0.1,1.3-0.9,2.4-2.2,2.8c-3.7,1.5-4.8,2.2-4.6,2.7c0.2,0.4,1,1.1,2.2,2c2.3,1.7,5.6,4.3,8,8.8   c0.6,1.2,0.4,2.6-0.5,3.6l0,0c-0.9,1-2.3,1.2-3.5,0.7l-0.1,0l0,0c-0.4-0.2-3.1-1.5-4.7-1.7c-0.5,1.5-0.9,2.8-3.1,3.3   c-2.6,0.6-4.6-0.7-6.8-2.2C34.5,19.7,29,20.1,22.2,24.7L22.2,24.7z"/></g></svg>