<?xml version="1.0" ?><svg data-name="Day 01" id="53772df6-ab3c-4b3d-9026-25f948681675" viewBox="0 0 64 64" xmlns="http://www.w3.org/2000/svg"><title/><g data-name="&lt;Group&gt;" id="a667d50a-4170-48f3-a540-62996ad2c9fc"><path d="M54.87,33.53a16.86,16.86,0,0,1-6,3.88L26.95,15.5A17,17,0,0,1,53.27,8.09a15,15,0,0,1,1.6,1.4A17,17,0,0,1,54.87,33.53Z" data-name="&lt;Path&gt;" fill="#4c4eff" id="3965d088-027d-4a88-a9a6-e45e37a6ef15"/><path d="M51.87,30.53a16.86,16.86,0,0,1-6,3.88L26.95,15.5a17,17,0,0,1,21.58-10,16.68,16.68,0,0,1,4.74,2.6A17,17,0,0,1,51.87,30.53Z" data-name="&lt;Path&gt;" fill="#328df0" id="1ce4300c-51f7-4659-920d-b35e7aa01fd8"/><path d="M48.53,5.49a5.5,5.5,0,0,1-11-.13A17,17,0,0,1,48.53,5.49Z" data-name="&lt;Path&gt;" fill="#4c4eff" id="0da2d67f-3c9a-4133-b24c-620b00156f90"/><path d="M54.87,33.52a16.84,16.84,0,0,1-6,3.88L26.95,15.5a17,17,0,1,1,27.92,18Z" data-name="&lt;Path&gt;" fill="none" id="f1cfd8cd-107e-4167-93fa-56fb48b48cf0" stroke="#001c63" stroke-linecap="round" stroke-linejoin="round" stroke-width="2"/><path d="M29.42,29.28c-3.3,3.3-6.13.47-9.43,3.77s-.47,6.13-3.77,9.43-6.13.47-9.43,3.77" data-name="&lt;Path&gt;" fill="none" id="e3106d51-a9c0-4295-b6d2-9dea81bbd285" stroke="#001c63" stroke-linecap="round" stroke-linejoin="round" stroke-width="2"/><g data-name="&lt;Group&gt;" id="c853dabe-0b16-40b8-88ad-787153f79f40"><path d="M49.92,45.54c-1.55-1.55-.14-3-1.69-4.52s-3-.14-4.52-1.7-.14-3-1.7-4.52-3-.14-4.52-1.7-.14-3-1.69-4.52-3-.14-4.52-1.7-.14-3-1.7-4.53-3-.14-4.53-1.7-.14-3-1.7-4.53-3-.14-4.53-1.7" data-name="&lt;Path&gt;" fill="none" id="d3c87efc-b17c-4615-83e1-cec5bee23afa" stroke="#328df0" stroke-linecap="round" stroke-linejoin="round" stroke-width="2"/></g><path d="M25.7,25.91c-3.18,2.47-5.64-.68-8.82,1.79s-.73,5.63-3.91,8.11-5.64-.68-8.82,1.79" data-name="&lt;Path&gt;" fill="none" id="e95a3830-db8d-493b-8616-acc5776e86b6" stroke="#001c63" stroke-linecap="round" stroke-linejoin="round" stroke-width="2"/><path d="M37.74,38c-2.47,3.18.68,5.64-1.79,8.82s-5.63.73-8.11,3.91.68,5.64-1.79,8.82" data-name="&lt;Path&gt;" fill="none" id="0e186637-1c4d-4b06-b754-764d6082e191" stroke="#001c63" stroke-linecap="round" stroke-linejoin="round" stroke-width="2"/><path d="M17.4,56.86c3.3-3.3.47-6.13,3.77-9.43s6.13-.47,9.43-3.77.47-6.13,3.77-9.43" data-name="&lt;Path&gt;" fill="none" id="0dd686a0-2de0-44d1-a143-983c46f469e4" stroke="#001c63" stroke-linecap="round" stroke-linejoin="round" stroke-width="2"/><g data-name="&lt;Group&gt;" id="3aed38f9-9da7-4316-9f70-05dfab4fcbc6"><path d="M32.25,32.11c-3,3-4.42,1.59-7.42,4.59s-1.59,4.42-4.6,7.42-4.42,1.59-7.43,4.6-1.59,4.42-4.6,7.43" data-name="&lt;Path&gt;" fill="none" id="72983d60-2d87-4f67-9de9-25bcb188962a" stroke="#001c63" stroke-linecap="round" stroke-linejoin="round" stroke-width="2"/></g><polygon data-name="&lt;Path&gt;" fill="#ffe05c" id="71a42fea-3795-44fe-b833-c6f46c110ef6" points="52.04 15 42.15 15 44.27 18.6 37.9 22.17 50.28 21.84 47.8 17.89 52.04 15"/><polygon data-name="&lt;Path&gt;" fill="none" id="be38bfac-d100-46d3-b590-40e8e73de529" points="52.04 15 42.15 15 44.27 18.6 37.9 22.17 50.28 21.84 47.8 17.89 52.04 15" stroke="#001c63" stroke-linecap="round" stroke-linejoin="round" stroke-width="2"/><circle cx="50.54" cy="30.82" data-name="&lt;Path&gt;" fill="#4c4eff" id="0653e0e8-af70-4fb4-93d6-67b1c63e53e9" r="3"/><circle cx="36.54" cy="11.82" data-name="&lt;Path&gt;" fill="#4c4eff" id="ed868f86-4693-47bb-a31a-5aff341b4fe5" r="1"/></g></svg>