<?xml version="1.0" ?><!DOCTYPE svg  PUBLIC '-//W3C//DTD SVG 1.1//EN'  'http://www.w3.org/Graphics/SVG/1.1/DTD/svg11.dtd'><svg enable-background="new 0 0 800 800" height="800px" id="Layer_1" version="1.1" viewBox="0 0 800 800" width="800px" xml:space="preserve" xmlns="http://www.w3.org/2000/svg" xmlns:xlink="http://www.w3.org/1999/xlink"><g><path d="M716.754,649.693L570.077,505.671c-5.665-5.561-14.782-5.48-20.336,0.185l-25.036,25.491   c-2.665,2.72-4.158,6.392-4.117,10.207c0.04,3.813,1.581,7.455,4.309,10.127l146.679,144.021c2.793,2.749,6.436,4.122,10.071,4.122   c3.724,0,7.447-1.438,10.263-4.306l25.022-25.491c2.681-2.721,4.156-6.392,4.124-10.208   C721.024,656.008,719.467,652.364,716.754,649.693z M681.461,665.108L555.303,541.237l4.88-4.971l126.157,123.87L681.461,665.108z" fill="#4D4D4D"/><path d="M523.485,502.353c53.027-54.003,87.583-120.036,97.292-185.928c9.911-67.183-7.046-126.334-47.699-166.735   c-0.016-0.021-0.048-0.044-0.064-0.064c-0.209-0.213-0.4-0.437-0.617-0.65c-81.26-79.802-231.317-59.708-342.316,45.514   c-4.59,2.278-8.795,5.023-12.229,8.526c-4.237,4.313-7.568,9.55-9.903,15.568c0,0,0,0.004,0,0.008l-0.008,0.004   c-16.716,43.137,23.962,124.673,98.922,198.281c61.606,60.487,130.836,99.573,176.385,99.573c0,0,0,0,0.008,0   c13.875,0,25.72-3.68,34.676-10.639C519.97,505.105,521.88,503.99,523.485,502.353z M350.052,149.027   c1.333,0.421,2.721,0.718,4.189,0.73c2.255,0.016,23.353,0.533,52.691,11.178c-7.944,4.474-15.448,9.156-22.404,13.834   c-18.265-9.217-34.757-15.368-48.391-19.452C340.768,153.087,345.406,150.985,350.052,149.027z M440.396,176.308   c16.595,9.305,34.281,21.936,51.823,38.912l-21.314,21.703c-19.708-19.099-39.345-34.114-57.962-45.962   C421.537,185.741,430.733,180.725,440.396,176.308z M559.46,252.21c-8.819-13.529-17.951-25.744-27.292-36.625l24.01-24.46   C560.912,213.535,561.586,233.921,559.46,252.21z M577.452,353.869c0.714,1.982,1.926,3.595,3.306,5.016   c-2.752,8.033-5.817,16.021-9.333,23.938c-5.986-12.92-12.197-25.061-18.554-36.605c4.471-6.479,8.86-13.558,12.969-21.269   C569.86,334.14,573.769,343.685,577.452,353.869z M521.117,406.793c-2.495-5.433-5.336-10.971-8.37-16.544   c5.048-4.152,12.366-10.656,20.576-19.568c7.117,13.578,14.011,27.999,20.56,43.523c0.176,0.437,0.498,0.767,0.715,1.175   c-6.203,10.461-13.057,20.713-20.552,30.696C531.798,434.053,527.617,420.957,521.117,406.793z M447.121,302.197l23.223-23.653   c16.524,18.502,32.846,40.337,48.325,66.073c-7.96,9.365-15.472,16.335-20.872,20.88   C483.858,344.379,466.733,322.909,447.121,302.197z M536.854,319.061c-14.846-23.517-30.357-43.815-46.063-61.341l21.09-21.471   c13.177,15.608,25.969,34.106,37.877,55.861C546.034,302.005,541.62,310.992,536.854,319.061z M540.481,166.072l-28.016,28.528   c-12.446-12.058-24.996-22.065-37.306-30.495C496.666,158.946,519.023,158.424,540.481,166.072z M450.426,257.788l-23.641,24.074   c-21.627-20.608-43.751-38.347-65.273-52.611c5.793-5.192,14.252-12.39,24.749-20.239   C406.37,220.706,428.294,236.481,450.426,257.788z M592.33,312.232c-0.057,0.362-0.145,0.718-0.201,1.079   c-3.691-8.43-7.463-16.595-11.396-24.307c4.944-16.226,8.138-34.241,8.507-54.003C595.267,258.357,596.431,284.414,592.33,312.232z    M483.738,133.086c-14.533,2.134-28.722,6.135-42.203,11.367c-11.267-5.493-21.939-9.678-31.746-12.896   C435.685,127.356,460.715,127.874,483.738,133.086z M298.982,176.408c8.137,1.131,30.045,5.195,58.902,18.052   c-10.303,8.321-17.895,15.311-22.043,19.292c-13.956-7.636-27.454-13.686-40.132-17.899c-2.785-0.939-5.506-1.73-8.202-2.492   c-0.306-0.084-0.626-0.197-0.932-0.277c-2.816-0.779-5.569-1.421-8.281-1.995c-0.016-0.004-0.048-0.012-0.064-0.016   C285.051,185.833,291.985,181.006,298.982,176.408z M483.248,487.688c-31.466,0-91.98-28.244-156.228-91.331   c-69.27-68.015-101.064-136.146-93.04-164.996c2.143-2.303,4.285-4.613,6.508-6.877c1.893-1.925,3.827-3.776,5.753-5.638   c0.529-0.164,1.06-0.325,1.622-0.469c1.147-0.272,2.303-0.545,3.595-0.702c0.321-0.044,0.674-0.061,1.011-0.1   c29.885-2.874,93.072,24.76,160.433,90.812c36.417,35.82,65.242,74.696,81.171,109.504c13.409,29.318,15.97,53.417,6.669,62.891   c-1.107,1.119-1.918,2.399-2.584,3.731c-3.724,2.095-8.699,3.174-14.902,3.174H483.248z" fill="#4D4D4D"/><path d="M266.273,462.32c-4.639-2.893-9.935-4.361-15.737-4.361c-19.668,0-43.654,18.067-61.092,46.031   c-3.17,5.088-5.843,10.291-8.25,15.503c-2.92-5.81-6.179-11.607-10.063-17.229c-18.409-26.57-42.002-43.078-61.582-43.078   c-6.364,0-12.295,1.782-17.166,5.153c-6.476,4.481-16.692,15.724-12.431,40.661c2.504,14.689,9.695,31.165,20.239,46.384   c16.796,24.251,37.885,39.964,56.334,42.547c-0.851,2.504-1.421,5.145-1.421,7.938c0,13.613,11.034,24.651,24.652,24.651   s24.653-11.038,24.653-24.651c0-2.227-0.394-4.342-0.939-6.396c19.308-1.087,42.299-18.738,59.191-45.821   c9.798-15.717,16.187-32.518,17.984-47.314C283.703,477.219,272.949,466.486,266.273,462.32z M123.841,535.01   c-16.436-23.721-17.961-43.768-15.192-46.966c0.008,0,0.257-0.095,0.899-0.095c6.917,0,23.271,9.521,37.94,30.694   c16.419,23.713,17.952,43.764,15.184,46.965c-0.008,0.004-0.257,0.097-0.899,0.097C154.856,565.705,138.501,556.184,123.841,535.01   z M238.25,534.432c-13.819,22.16-30.052,32.488-36.674,32.488l-0.433,0.061c-3.122-3.186-2.568-23.283,12.71-47.771   c13.819-22.165,30.062-32.488,37.108-32.557C254.083,489.838,253.53,509.937,238.25,534.432z" fill="#4D4D4D"/></g></svg>